# xmcd
#
# Track frame offsets: 
#        150
#        10821
#        20928
#        30190
#        39581
#        49617
#        61644
#        72430
#        84317
#        95884
#        107315
#        117248
#        126512
#        137295
#        147629
#        156668
#        169896
#        181442
#        190257
#        204731
#        217866
#        231599
#        243450
#        263800
#        277133
#
# Disc length: 3849 seconds
#
# Revision: 1
# Processed by: cddbd v1.5.2PL0 Copyright (c) Steve Scherf et al.
# Submitted via: ExactAudioCopyFreeDBPlugin 1.0
#
DISCID=740f0719
DTITLE=Various Artist - Keeping the Faith:  40 Years of Northern Soul
DTITLE=Various Artist - Memories and Souvenirs [box set]
DYEAR=2007
DGENRE=Soul
TTITLE0=Just Brothers - Sliced Tomatoes
TTITLE1=Rose Batiste - Hit and Run
TTITLE2=Rita and The Tiaras - Gone with the Wind is My Love
TTITLE3=The Tomangoe's - I Really Love You
TTITLE4=The Masqueraders - Do You Love Me Baby
TTITLE5=The Superlatives - I Still Love You
TTITLE6=Dena Barnes - If You Ever Walk Out of My Life
TTITLE7=Gwen Owens - Just Say You're Wanted and Needed
TTITLE8=The Four Perfections - I'm Not Strong Enough
TTITLE9=Bernie Williams - Ever Again
TTITLE10=Tony Middleton - Paris Blues
TTITLE11=Michael and Raymond - Man Without a Woman
TTITLE12=The Glories - I Worship You Baby
TTITLE13=Marie Knight - That's No Way to Treat a Lady
TTITLE14=Porchy and The Monarchs - That Girl
TTITLE15=Shirley J. Scott - Goose Pimples
TTITLE16=The Fuller Brothers - Time's A Wasting
TTITLE17=Little Johnny Hamilton and The Creators - Keep on Moving
TTITLE18=Virgil Henry - You Ain't Saying Nothing New
TTITLE19=Diane Jenkins - Tow Away Zone
TTITLE20=The Continental 4 - The Way I Love You
TTITLE21=The Festivals - Gee Baby
TTITLE22=Jimmy Helms - Romeo and Juliet
TTITLE23=Odds and Ends - Let Me Try
TTITLE24=The Whispers - Flying High
EXTD=4 x CD Box Set\nKeeping The Faith 40 Years Of Northern Soul\nMemo
EXTD=ries and Souvenirs
EXTT0=
EXTT1=
EXTT2=
EXTT3=
EXTT4=
EXTT5=
EXTT6=
EXTT7=
EXTT8=
EXTT9=
EXTT10=
EXTT11=
EXTT12=
EXTT13=
EXTT14=
EXTT15=
EXTT16=
EXTT17=
EXTT18=
EXTT19=
EXTT20=
EXTT21=
EXTT22=
EXTT23=
EXTT24=
PLAYORDER=
